<svg xmlns="http://www.w3.org/2000/svg" xmlns:xlink="http://www.w3.org/1999/xlink" xmlns:inkscape="http://www.inkscape.org/namespaces/inkscape" version="1.1" width="231" height="183" viewBox="0 0 231 183">
<defs>
<path id="font_1_3" d="M.6349945 .5776062C.644989 .61860659 .6629944 .64860537 .7429962 .6516113 .7480011 .6516113 .7599945 .65260317 .7599945 .6716156 .7599945 .6726074 .7599945 .6826172 .746994 .6826172 .71398928 .6826172 .67900088 .6796112 .644989 .6796112 .61099246 .6796112 .57398989 .6826172 .54100039 .6826172 .5349884 .6826172 .522995 .6826172 .522995 .6626129 .522995 .6516113 .5329895 .6516113 .54100039 .6516113 .59799197 .65060427 .60899356 .62960818 .60899356 .607605 .60899356 .604599 .6069946 .5895996 .60598757 .5866089L.5159912 .22955323C.48199464 .09553528 .36698915 .008529663 .2669983 .008529663 .19898987 .008529663 .14498902 .05253601 .14498902 .1385498 .14498902 .1405487 .14498902 .17254639 .1559906 .21655274L.25299073 .6056061C.2619934 .64160159 .2639923 .6516113 .33699037 .6516113 .36299134 .6516113 .37098695 .6516113 .37098695 .6716156 .37098695 .6826172 .3600006 .6826172 .35699464 .6826172 .32899476 .6826172 .25698854 .6796112 .22898865 .6796112 .19999695 .6796112 .1289978 .6826172 .099990848 .6826172 .09199524 .6826172 .08099365 .6826172 .08099365 .6626129 .08099365 .6516113 .08999634 .6516113 .10899353 .6516113 .11099243 .6516113 .12998963 .6516113 .14698792 .6496124 .16499329 .6476135 .17399597 .64660647 .17399597 .63360598 .17399597 .62760928 .16299439 .5856018 .15699768 .56259158L.1349945 .47459413C.12599182 .4355774 .07798767 .24656677 .07398987 .22755432 .066986087 .19955445 .066986087 .18455506 .066986087 .16955567 .066986087 .047531129 .1579895-.022460938 .2630005-.022460938 .3889923-.022460938 .5130005 .090545658 .54599 .2225647L.6349945 .5776062Z"/>
<clipPath id="clip_2">
<path transform="matrix(1,0,0,-1.00002,115.681,96.28869)" d="M28.3468 0C28.3468 31.31142 2.9646 56.69362-28.3468 56.69362-59.65822 56.69362-85.04042 31.31142-85.04042 0-85.04042-31.31142-59.65822-56.69362-28.3468-56.69362 2.9646-56.69362 28.3468-31.31142 28.3468 0ZM-28.3468 0"/>
</clipPath>
<clipPath id="clip_3">
<path transform="matrix(1,0,0,-1.00002,115.681,96.28869)" d="M85.04042 0C85.04042 31.31142 59.65822 56.69362 28.3468 56.69362-2.9646 56.69362-28.3468 31.31142-28.3468 0-28.3468-31.31142-2.9646-56.69362 28.3468-56.69362 59.65822-56.69362 85.04042-31.31142 85.04042 0ZM28.3468 0"/>
</clipPath>
<path id="font_1_1" d="M.1789856 .114868167C.13899231 .047973634 .099990848 .033981325 .055999757 .0309906 .04399109 .02999878 .034988405 .02999878 .034988405 .010986328 .034988405 .004989624 .039993287 0 .04798889 0 .07499695 0 .10598755 .0029907227 .13398743 .0029907227 .16699219 .0029907227 .20199585 0 .23399353 0 .23999024 0 .25299073 0 .25299073 .018997193 .25299073 .02999878 .24398804 .0309906 .23699951 .0309906 .21398926 .032989503 .18998719 .04096985 .18998719 .06593323 .18998719 .077926639 .19599915 .088897708 .20399475 .102890018L.27999879 .23068238H.5309906C.5329895 .2097168 .5469971 .07392883 .5469971 .063949588 .5469971 .033981325 .49499513 .0309906 .47499085 .0309906 .46099855 .0309906 .45098878 .0309906 .45098878 .010986328 .45098878 0 .46299745 0 .46499635 0 .5059967 0 .548996 .0029907227 .58999636 .0029907227 .61499026 .0029907227 .6779938 0 .7029877 0 .70899966 0 .72099307 0 .72099307 .019989014 .72099307 .0309906 .71099856 .0309906 .69799807 .0309906 .6359863 .0309906 .6359863 .037979127 .6329956 .06694031L.57199099 .691803C.56999209 .71180728 .56999209 .7158203 .5529938 .7158203 .5369873 .7158203 .5329895 .7088165 .5269928 .69880679L.1789856 .114868167M.29899598 .26168824 .49598695 .5917816 .5279999 .26168824H.29899598Z"/>
<path id="font_1_2" d="M.1599884 .07795715C.1499939 .038986207 .147995 .0309906 .068984989 .0309906 .051986696 .0309906 .041992189 .0309906 .041992189 .010986328 .041992189 0 .050994874 0 .068984989 0H.42599488C.58399966 0 .70199587 .11791992 .70199587 .21585083 .70199587 .28778077 .6439972 .3457489 .5469971 .35673524 .651001 .37573243 .7559967 .44970704 .7559967 .5446625 .7559967 .6186218 .6899872 .6826172 .56999209 .6826172H.23399353C.21499634 .6826172 .20498657 .6826172 .20498657 .6626129 .20498657 .6516113 .21398926 .6516113 .23298645 .6516113 .23498535 .6516113 .2539978 .6516113 .2709961 .6496124 .2889862 .6476135 .2979889 .64660647 .2979889 .6336212 .2979889 .6296234 .29699708 .62661746 .2939911 .614624L.1599884 .07795715M.31098939 .36573792 .37298585 .6136322C.38198854 .64860537 .38398744 .6516113 .4269867 .6516113H.55599978C.6439972 .6516113 .6649933 .5926361 .6649933 .5486603 .6649933 .46069337 .57899478 .36573792 .45700074 .36573792H.31098939M.2659912 .0309906C.2519989 .0309906 .25 .0309906 .24398804 .03199768 .23399353 .032989503 .23098755 .033996583 .23098755 .04197693 .23098755 .04498291 .23098755 .04698181 .23599243 .064971927L.30499269 .34375H.49398805C.58999636 .34375 .60899356 .2698059 .60899356 .22683716 .60899356 .12791443 .519989 .0309906 .4019928 .0309906H.2659912Z"/>
</defs>
<path transform="matrix(1,0,0,-1.00002,115.681,96.28869)" stroke-width=".79701" stroke-linecap="butt" stroke-miterlimit="10" stroke-linejoin="miter" fill="none" stroke="#000000" d="M-113.38724-85.04042V85.04042H113.38724V-85.04042ZM113.38724 85.04042"/>
<use data-text="U" xlink:href="#font_1_3" transform="matrix(9.9626,0,0,-9.962799,5.8139955,7.726921)"/>
<g clip-path="url(#clip_2)">
<path transform="matrix(1,0,0,-1.00002,115.681,96.28869)" d="M28.3468 0C28.3468 31.31142 2.9646 56.69362-28.3468 56.69362-59.65822 56.69362-85.04042 31.31142-85.04042 0-85.04042-31.31142-59.65822-56.69362-28.3468-56.69362 2.9646-56.69362 28.3468-31.31142 28.3468 0ZM-28.3468 0" fill="#cccccc"/>
</g>
<g clip-path="url(#clip_3)">
<path transform="matrix(1,0,0,-1.00002,115.681,96.28869)" d="M85.04042 0C85.04042 31.31142 59.65822 56.69362 28.3468 56.69362-2.9646 56.69362-28.3468 31.31142-28.3468 0-28.3468-31.31142-2.9646-56.69362 28.3468-56.69362 59.65822-56.69362 85.04042-31.31142 85.04042 0ZM28.3468 0" fill="#cccccc"/>
</g>
<path transform="matrix(1,0,0,-1.00002,115.681,96.28869)" stroke-width=".79701" stroke-linecap="butt" stroke-miterlimit="10" stroke-linejoin="miter" fill="none" stroke="#000000" d="M28.3468 0C28.3468 31.31142 2.9646 56.69362-28.3468 56.69362-59.65822 56.69362-85.04042 31.31142-85.04042 0-85.04042-31.31142-59.65822-56.69362-28.3468-56.69362 2.9646-56.69362 28.3468-31.31142 28.3468 0ZM-28.3468 0"/>
<use data-text="A" xlink:href="#font_1_1" transform="matrix(9.9626,0,0,-9.962799,76.341999,163.31104)"/>
<path transform="matrix(1,0,0,-1.00002,115.681,96.28869)" stroke-width=".79701" stroke-linecap="butt" stroke-miterlimit="10" stroke-linejoin="miter" fill="none" stroke="#000000" d="M85.04042 0C85.04042 31.31142 59.65822 56.69362 28.3468 56.69362-2.9646 56.69362-28.3468 31.31142-28.3468 0-28.3468-31.31142-2.9646-56.69362 28.3468-56.69362 59.65822-56.69362 85.04042-31.31142 85.04042 0ZM28.3468 0"/>
<use data-text="B" xlink:href="#font_1_2" transform="matrix(9.9626,0,0,-9.962799,147.548,163.31104)"/>
</svg>
